# File created by Blade
# Date/Time:  Wed Apr 08 17:35:20 2015
#---------------------------------------------------------
:version 1.10
:name HOM
:units
  mass 1.0
  length 1.000000
  angle deg
:documentation
     Acclaim Skeleton File
:root
   axis xyz
   order TX TY TZ RX RY RZ
   position 0.000000 0.000000 0.000000
   orientation 0 0 0
:bonedata
   begin
      id 1
      name Spine_dum
      direction 0.000000 1.000000 0.000000
      length 5.893853
      axis 0.0 0.0 0.0 xyz
   end
   begin
      id 2
      name LeftUpLeg_dum
      direction 1.000000 0.000000 0.000000
      length 3.697939
      axis 0.0 0.0 0.0 xyz
   end
   begin
      id 3
      name RightUpLeg_dum
      direction -1.000000 0.000000 0.000000
      length 3.697939
      axis 0.0 0.0 0.0 xyz
   end
   begin
      id 4
      name Spine
      direction 0.000000 1.000000 0.000000
      length 0.000000
      axis 0.0 0.0 0.0 xyz
      dof rx ry rz
   end
   begin
      id 5
      name Spine_dum1
      direction 0.000000 1.000000 0.000000
      length 16.447146
      axis 0.0 0.0 0.0 xyz
   end
   begin
      id 6
      name Spine_dum2
      direction 0.000000 1.000000 0.000000
      length 10.900383
      axis 0.0 0.0 0.0 xyz
   end
   begin
      id 7
      name Spine_dum3
      direction 0.000000 1.000000 0.000000
      length 10.900383
      axis 0.0 0.0 0.0 xyz
   end
   begin
      id 8
      name Head
      direction 0.000000 1.000000 0.000000
      length 4.527550
      axis 0.0 0.0 0.0 xyz
      dof rx ry rz
   end
   begin
      id 9
      name LeftShoulder
      direction 1.000000 0.000000 0.000000
      length 8.219464
      axis 0.0 0.0 -90.0 xyz
      dof rx ry rz
   end
   begin
      id 10
      name LeftArm
      direction 1.000000 0.000000 0.000000
      length 11.094937
      axis 0.0 0.0 -90.0 xyz
      dof rx ry rz
   end
   begin
      id 11
      name LeftForeArm
      direction 1.000000 0.000000 0.000000
      length 9.103875
      axis 0.0 0.0 -90.0 xyz
      dof ry rz rx
   end
   begin
      id 12
      name LeftHand
      direction 0.000000 0.000000 0.000000
      length 0.000000
      axis 0.0 0.0 -90.0 xyz
      dof rx ry rz
   end
   begin
      id 13
      name LeftHand_dum1
      direction 0.000000 0.000000 0.000000
      length 0.000000
      axis 0.0 0.0 -90.0 xyz
   end
   begin
      id 14
      name LeftHand_dum2
      direction 1.000000 0.000000 0.000000
      length 3.937000
      axis 0.0 0.0 -90.0 xyz
   end
   begin
      id 15
      name LeftHandThumb1
      direction 0.000000 0.000000 1.000000
      length 3.937000
      axis 0.0 0.0 -90.0 xyz
      dof rx rz ry
   end
   begin
      id 16
      name RightShoulder
      direction -1.000000 0.000000 0.000000
      length 8.219464
      axis 0.0 0.0 90.0 xyz
      dof rx ry rz
   end
   begin
      id 17
      name RightArm
      direction -1.000000 0.000000 0.000000
      length 11.094937
      axis 0.0 0.0 90.0 xyz
      dof rx ry rz
   end
   begin
      id 18
      name RightForeArm
      direction -1.000000 0.000000 0.000000
      length 9.103875
      axis 0.0 0.0 90.0 xyz
      dof ry rz rx
   end
   begin
      id 19
      name RightHand
      direction 0.000000 0.000000 0.000000
      length 0.000000
      axis 0.0 0.0 90.0 xyz
      dof rx ry rz
   end
   begin
      id 20
      name RightHand_dum1
      direction 0.000000 0.000000 0.000000
      length 0.000000
      axis 0.0 0.0 90.0 xyz
   end
   begin
      id 21
      name RightHand_dum2
      direction -1.000000 0.000000 0.000000
      length 3.937000
      axis 0.0 0.0 90.0 xyz
   end
   begin
      id 22
      name RightHandThumb1
      direction 0.000000 0.000000 1.000000
      length 3.937000
      axis 0.0 0.0 90.0 xyz
      dof rx rz ry
   end
   begin
      id 23
      name LeftUpLeg
      direction 0.000000 -1.000000 0.000000
      length 16.181467
      axis 0.0 0.0 0.0 xyz
      dof rx ry rz
   end
   begin
      id 24
      name LeftLeg
      direction 0.000000 -1.000000 0.000000
      length 16.501392
      axis 0.0 0.0 0.0 xyz
      dof rx ry rz
   end
   begin
      id 25
      name LeftFoot
      direction 0.000000 -0.258819 0.965926
      length 6.408245
      axis 15.0 0.0 0.0 xyz
      dof rx ry rz
   end
   begin
      id 26
      name LeftToeBase
      direction 0.000000 0.000000 1.000000
      length 2.952750
      axis 0.0 0.0 0.0 xyz
      dof rx ry rz
   end
   begin
      id 27
      name RightUpLeg
      direction 0.000000 -1.000000 0.000000
      length 16.181467
      axis 0.0 0.0 0.0 xyz
      dof rx ry rz
   end
   begin
      id 28
      name RightLeg
      direction 0.000000 -1.000000 0.000000
      length 16.501392
      axis 0.0 0.0 0.0 xyz
      dof rx ry rz
   end
   begin
      id 29
      name RightFoot
      direction 0.000000 -0.258819 0.965926
      length 6.408245
      axis 15.0 0.0 0.0 xyz
      dof rx ry rz
   end
   begin
      id 30
      name RightToeBase
      direction 0.000000 0.000000 1.000000
      length 2.952750
      axis 0.0 0.0 0.0 xyz
      dof rx ry rz
   end
:hierarchy
   begin
      root Spine_dum LeftUpLeg_dum RightUpLeg_dum
      Spine_dum Spine
      LeftUpLeg_dum LeftUpLeg
      RightUpLeg_dum RightUpLeg
      Spine Spine_dum1 Spine_dum2 Spine_dum3
      Spine_dum1 Head
      Spine_dum2 LeftShoulder
      Spine_dum3 RightShoulder
      LeftShoulder LeftArm
      LeftArm LeftForeArm
      LeftForeArm LeftHand
      LeftHand LeftHand_dum1 LeftHand_dum2
      LeftHand_dum1 LeftHandThumb1
      RightShoulder RightArm
      RightArm RightForeArm
      RightForeArm RightHand
      RightHand RightHand_dum1 RightHand_dum2
      RightHand_dum1 RightHandThumb1
      LeftUpLeg LeftLeg
      LeftLeg LeftFoot
      LeftFoot LeftToeBase
      RightUpLeg RightLeg
      RightLeg RightFoot
      RightFoot RightToeBase
   end

# File created by Blade
# Date/Time:  Wed Apr 08 17:35:25 2015
# Frame Rate: 120.000 fps
#------------------------------------------------------
:FULLY-SPECIFIED
:DEGREES
1123
root 9.094718 37.294463 4.967591 149.836869 -69.778261 -111.512306
Spine -34.624633 0.501074 14.191051
Head 31.241377 -7.049301 9.827341
LeftShoulder -8.736233 23.218945 13.585171
LeftArm 23.762691 29.764517 -74.661215
LeftForeArm 21.153482 -0.000000 31.868979
LeftHand -13.116473 -0.000000 -7.921134
LeftHandThumb1 -26.253704 0.000000 33.147579
RightShoulder -39.664807 -52.879821 19.017616
RightArm 55.906974 -22.803123 45.428048
RightForeArm 3.635765 -0.000000 23.006445
RightHand -0.002470 -0.000000 19.729589
RightHandThumb1 -24.326973 -0.000000 -32.862282
LeftUpLeg -50.901602 21.156913 -5.955905
LeftLeg 21.467654 -0.000000 -0.000000
LeftFoot -13.467379 16.383310 -5.516950
LeftToeBase 5.649665 -0.000000 -0.000000
RightUpLeg -126.469313 -8.926002 26.902849
RightLeg 96.845742 -0.000000 -0.000000
RightFoot -26.579421 -29.915575 10.012970
RightToeBase -29.215585 -0.000000 0.000000
1124
root 9.096015 37.294737 4.970605 149.569549 -69.826769 -111.240892
Spine -34.660344 0.613034 14.120973
Head 31.234482 -7.133256 9.900522
LeftShoulder -8.854166 23.347577 13.509880
LeftArm 24.024852 30.340924 -74.150501
LeftForeArm 20.670930 -0.000000 32.013249
LeftHand -13.458436 -0.000000 -7.603606
LeftHandThumb1 -26.253704 0.000000 33.147579
RightShoulder -39.698482 -52.834910 19.056606
RightArm 55.934180 -22.760062 45.395156
RightForeArm 3.811656 -0.000000 23.035644
RightHand -0.063994 -0.000000 19.684333
RightHandThumb1 -24.326973 -0.000000 -32.862282
LeftUpLeg -50.920641 21.108509 -5.916172
LeftLeg 21.518069 -0.000000 -0.000000
LeftFoot -13.569672 16.231518 -5.701025
LeftToeBase 5.902821 -0.000000 -0.000000
RightUpLeg -126.336169 -9.385795 26.415387
RightLeg 96.637274 -0.000000 -0.000000
RightFoot -26.783616 -30.289874 10.275504
RightToeBase -28.760231 -0.000000 0.000000
1125
root 9.097537 37.295086 4.974285 149.360063 -69.850943 -111.026987
Spine -34.700730 0.731534 14.047858
Head 31.253979 -7.196939 10.001120
LeftShoulder -8.856238 23.399801 13.536056
LeftArm 24.058592 30.451684 -74.089587
LeftForeArm 20.656432 0.000000 31.921497
LeftHand -13.322536 -0.000000 -8.004817
LeftHandThumb1 -26.253704 0.000000 33.147579
RightShoulder -39.668933 -52.813996 19.068446
RightArm 55.973610 -22.716207 45.351023
RightForeArm 3.990879 -0.000000 23.030776
RightHand -0.121391 -0.000000 19.681058
RightHandThumb1 -24.326973 -0.000000 -32.862282
LeftUpLeg -50.957305 21.098580 -5.895583
LeftLeg 21.581290 -0.000000 -0.000000
LeftFoot -13.663567 16.087489 -5.854475
LeftToeBase 6.103669 -0.000000 -0.000000
RightUpLeg -126.199561 -9.792945 25.972424
RightLeg 96.408970 -0.000000 -0.000000
RightFoot -26.683962 -30.713243 10.186979
RightToeBase -28.753938 -0.000000 0.000000
1126
root 9.097160 37.293908 4.976222 149.154170 -69.898514 -110.820956
Spine -34.751993 0.825001 13.954813
Head 31.285333 -7.253333 10.089537
LeftShoulder -8.866266 23.427378 13.563858
LeftArm 24.044820 30.510582 -74.067190
LeftForeArm 20.795913 -0.000000 31.829048
LeftHand -13.317122 -0.000000 -8.349481
LeftHandThumb1 -26.253704 0.000000 33.147579
RightShoulder -39.611470 -52.794562 19.064376
RightArm 55.957727 -22.677186 45.341225
RightForeArm 4.065778 0.000000 23.077744
RightHand -0.116981 0.000000 19.763268
RightHandThumb1 -24.326973 -0.000000 -32.862282
LeftUpLeg -50.989972 21.081366 -5.908662
LeftLeg 21.627523 -0.000000 -0.000000
LeftFoot -13.749579 15.967802 -6.013156
LeftToeBase 6.303614 -0.000000 -0.000000
RightUpLeg -126.096370 -10.201941 25.554706
RightLeg 96.239975 -0.000000 -0.000000
RightFoot -26.644018 -30.676005 10.225024
RightToeBase -28.869340 -0.000000 0.000000
